<svg width="1923" height="1081" viewBox="0 0 1923 1081" fill="none" xmlns="http://www.w3.org/2000/svg">
<rect x="2" width="1920" height="1080" fill="url(#paint0_linear)"/>
<circle cx="1800.5" cy="433.5" r="106.5" fill="#FBEFD6"/>
<path d="M178.046 560.307C138.429 494.394 53.2023 506.413 2 546.991V1038.83L1921 1050L1922 549.569C1910.2 520.015 1886.68 548.232 1850.48 587.369C1850.48 587.369 1856.98 565.465 1797.47 549.568C1737.95 533.671 1543.4 544.847 1512.89 528.52C1482.39 512.194 1406.49 524.238 1359.35 568.039C1312.21 611.84 1342.85 617.868 1274.83 605.84C1206.81 593.812 1135.8 563.315 1068.78 568.039C1001.76 572.764 993.209 587.612 978.754 634.191L679.176 625.6C685.834 575.941 721.192 579.231 646.168 580.07C628.572 576.83 621.161 467.956 537.639 495.444C454.118 522.932 350.627 556.058 291.075 512.627C231.523 469.195 217.663 626.22 178.046 560.307Z" fill="#72A6E0"/>
<path d="M600.188 495.05C239.664 785.344 2 735.029 2 735.029V1072H1922V504.549C1920.04 440.39 1844.72 454.702 1459.74 650.036C1459.74 650.036 1354.8 678.534 1095.93 533.047C837.065 387.56 960.713 204.756 600.188 495.05Z" fill="#214093" stroke="black"/>
<path d="M414.71 592.212C244.421 619.041 2 756.215 2 756.215V1076H1922V865.695C1922 865.695 1622.5 661.881 1539.2 703.423C1455.89 744.965 1440.56 707.769 1320.38 661.881C1200.2 615.994 1042.91 674.735 966.486 728.088C890.064 781.442 771.085 751.041 751.159 703.423C731.233 655.804 721.5 542.883 640.505 592.212C559.509 641.542 585 565.383 414.71 592.212Z" fill="#3D6BBC"/>
<path d="M511.633 664.326C368.596 516.358 198.013 568.992 2.00026 612.245L1 1080H1922V616.139C1922 616.139 1737.95 527.553 1615.42 516.358C1492.89 505.163 1565.41 565.518 1437.87 612.245C1310.34 658.972 1288.84 612.245 1123.29 731.009C957.749 849.773 830.716 749.018 787.705 824.462C744.694 899.907 654.67 812.294 511.633 664.326Z" fill="#102264" stroke="black"/>
<path d="M496.129 729.315C351.591 719.963 194.692 751.691 2 885.954V1080H1922V691.908C1886.41 627.469 1787.97 657.776 1756.46 704.066C1724.95 750.357 1650.93 885.954 1530.4 856.497C1409.87 827.039 1142.62 934.343 1120.29 885.954C1097.96 837.565 891.109 664.868 842.719 764.851C794.329 864.834 640.666 738.667 496.129 729.315Z" fill="#061036" stroke="black"/>
<path d="M1325.07 229.037C1325.08 229.242 1325.01 229.443 1324.89 229.612C1324.78 229.78 1324.61 229.908 1324.42 229.977L1320.43 231.427L1318.98 235.416C1318.91 235.608 1318.78 235.775 1318.61 235.893C1318.44 236.011 1318.24 236.074 1318.04 236.074C1317.83 236.074 1317.63 236.011 1317.46 235.893C1317.3 235.775 1317.17 235.608 1317.1 235.416L1315.65 231.427L1311.66 229.977C1311.47 229.907 1311.3 229.779 1311.18 229.611C1311.06 229.442 1311 229.242 1311 229.037C1311 228.832 1311.06 228.631 1311.18 228.463C1311.3 228.295 1311.47 228.167 1311.66 228.097L1315.65 226.647L1317.1 222.658C1317.17 222.465 1317.3 222.299 1317.46 222.181C1317.63 222.063 1317.83 222 1318.04 222C1318.24 222 1318.44 222.063 1318.61 222.181C1318.78 222.299 1318.91 222.465 1318.98 222.658L1320.43 226.647L1324.42 228.097C1324.61 228.166 1324.78 228.294 1324.89 228.462C1325.01 228.63 1325.08 228.831 1325.07 229.037H1325.07Z" fill="white"/>
<path d="M1546 144.5C1546 144.836 1545.9 145.164 1545.71 145.44C1545.51 145.715 1545.24 145.923 1544.92 146.036L1538.41 148.406L1536.04 154.924C1535.92 155.24 1535.71 155.512 1535.44 155.704C1535.16 155.897 1534.84 156 1534.5 156C1534.16 156 1533.84 155.897 1533.56 155.704C1533.29 155.512 1533.08 155.24 1532.96 154.924L1530.59 148.406L1524.08 146.036C1523.76 145.921 1523.49 145.712 1523.3 145.438C1523.1 145.163 1523 144.835 1523 144.5C1523 144.165 1523.1 143.837 1523.3 143.562C1523.49 143.288 1523.76 143.079 1524.08 142.964L1530.59 140.594L1532.96 134.076C1533.08 133.76 1533.29 133.488 1533.56 133.296C1533.84 133.103 1534.16 133 1534.5 133C1534.84 133 1535.16 133.103 1535.44 133.296C1535.71 133.488 1535.92 133.76 1536.04 134.076L1538.41 140.594L1544.92 142.964C1545.24 143.077 1545.51 143.285 1545.71 143.56C1545.9 143.836 1546 144.164 1546 144.5H1546Z" fill="white"/>
<path d="M1546 317C1546 317.175 1545.95 317.347 1545.85 317.49C1545.75 317.634 1545.6 317.743 1545.44 317.801L1542.04 319.038L1540.8 322.439C1540.74 322.603 1540.63 322.745 1540.49 322.846C1540.35 322.946 1540.18 323 1540 323C1539.82 323 1539.65 322.946 1539.51 322.846C1539.37 322.745 1539.26 322.603 1539.2 322.439L1537.96 319.038L1534.56 317.801C1534.4 317.742 1534.25 317.633 1534.15 317.489C1534.05 317.346 1534 317.175 1534 317C1534 316.825 1534.05 316.654 1534.15 316.511C1534.25 316.367 1534.4 316.258 1534.56 316.199L1537.96 314.962L1539.2 311.561C1539.26 311.397 1539.37 311.255 1539.51 311.154C1539.65 311.054 1539.82 311 1540 311C1540.18 311 1540.35 311.054 1540.49 311.154C1540.63 311.255 1540.74 311.397 1540.8 311.561L1542.04 314.962L1545.44 316.199C1545.6 316.257 1545.75 316.366 1545.85 316.51C1545.95 316.653 1546 316.825 1546 317H1546Z" fill="white"/>
<path d="M1133 393C1133 393.175 1132.95 393.347 1132.85 393.49C1132.75 393.634 1132.6 393.743 1132.44 393.801L1129.04 395.038L1127.8 398.439C1127.74 398.603 1127.63 398.745 1127.49 398.846C1127.35 398.946 1127.18 399 1127 399C1126.82 399 1126.65 398.946 1126.51 398.846C1126.37 398.745 1126.26 398.603 1126.2 398.439L1124.96 395.038L1121.56 393.801C1121.4 393.742 1121.25 393.633 1121.15 393.489C1121.05 393.346 1121 393.175 1121 393C1121 392.825 1121.05 392.654 1121.15 392.511C1121.25 392.367 1121.4 392.258 1121.56 392.199L1124.96 390.962L1126.2 387.561C1126.26 387.397 1126.37 387.255 1126.51 387.154C1126.65 387.054 1126.82 387 1127 387C1127.18 387 1127.35 387.054 1127.49 387.154C1127.63 387.255 1127.74 387.397 1127.8 387.561L1129.04 390.962L1132.44 392.199C1132.6 392.257 1132.75 392.366 1132.85 392.51C1132.95 392.653 1133 392.825 1133 393H1133Z" fill="white"/>
<path d="M829 176.5C829.002 176.807 828.909 177.107 828.733 177.358C828.557 177.609 828.307 177.799 828.018 177.902L822.066 180.066L819.902 186.018C819.798 186.306 819.607 186.554 819.356 186.73C819.105 186.906 818.806 187 818.5 187C818.194 187 817.895 186.906 817.644 186.73C817.393 186.554 817.202 186.306 817.098 186.018L814.933 180.066L808.982 177.902C808.694 177.798 808.446 177.607 808.27 177.356C808.094 177.105 808 176.806 808 176.5C808 176.194 808.094 175.895 808.27 175.644C808.446 175.393 808.694 175.202 808.982 175.098L814.933 172.934L817.098 166.982C817.202 166.694 817.393 166.446 817.644 166.27C817.895 166.094 818.194 166 818.5 166C818.806 166 819.105 166.094 819.356 166.27C819.607 166.446 819.798 166.694 819.902 166.982L822.066 172.934L828.018 175.098C828.307 175.201 828.557 175.391 828.733 175.642C828.909 175.893 829.002 176.193 829 176.5H829Z" fill="white"/>
<path d="M512 295.5C512.002 295.778 511.917 296.049 511.758 296.276C511.599 296.503 511.373 296.676 511.111 296.769L505.727 298.727L503.769 304.111C503.674 304.372 503.501 304.597 503.274 304.756C503.047 304.915 502.777 305 502.5 305C502.223 305 501.952 304.915 501.725 304.756C501.499 304.597 501.326 304.372 501.231 304.111L499.273 298.727L493.889 296.769C493.628 296.674 493.403 296.501 493.244 296.274C493.085 296.048 493 295.777 493 295.5C493 295.223 493.085 294.952 493.244 294.726C493.403 294.499 493.628 294.326 493.889 294.231L499.273 292.273L501.231 286.889C501.326 286.628 501.499 286.403 501.725 286.244C501.952 286.085 502.223 286 502.5 286C502.777 286 503.047 286.085 503.274 286.244C503.501 286.403 503.674 286.628 503.769 286.889L505.727 292.273L511.111 294.231C511.373 294.324 511.599 294.497 511.758 294.724C511.917 294.951 512.002 295.222 512 295.5H512Z" fill="white"/>
<path d="M188 402.5C188.002 402.778 187.917 403.049 187.758 403.276C187.599 403.503 187.373 403.676 187.111 403.769L181.727 405.727L179.769 411.111C179.674 411.372 179.501 411.597 179.274 411.756C179.047 411.915 178.777 412 178.5 412C178.223 412 177.952 411.915 177.725 411.756C177.499 411.597 177.326 411.372 177.231 411.111L175.273 405.727L169.889 403.769C169.628 403.674 169.403 403.501 169.244 403.274C169.085 403.048 169 402.777 169 402.5C169 402.223 169.085 401.952 169.244 401.726C169.403 401.499 169.628 401.326 169.889 401.231L175.273 399.273L177.231 393.889C177.326 393.628 177.499 393.403 177.725 393.244C177.952 393.085 178.223 393 178.5 393C178.777 393 179.047 393.085 179.274 393.244C179.501 393.403 179.674 393.628 179.769 393.889L181.727 399.273L187.111 401.231C187.373 401.324 187.599 401.497 187.758 401.724C187.917 401.951 188.002 402.222 188 402.5H188Z" fill="white"/>
<path d="M229 97.5C229.002 97.7775 228.917 98.0488 228.758 98.2762C228.599 98.5035 228.373 98.6757 228.111 98.7688L222.727 100.727L220.769 106.111C220.674 106.372 220.501 106.597 220.274 106.756C220.047 106.915 219.777 107 219.5 107C219.223 107 218.952 106.915 218.725 106.756C218.499 106.597 218.326 106.372 218.231 106.111L216.273 100.727L210.889 98.7688C210.628 98.674 210.403 98.5015 210.244 98.2745C210.085 98.0475 210 97.7771 210 97.5C210 97.2229 210.085 96.9525 210.244 96.7255C210.403 96.4985 210.628 96.326 210.889 96.2312L216.273 94.2732L218.231 88.8886C218.326 88.6282 218.499 88.4032 218.725 88.2442C218.952 88.0853 219.223 88 219.5 88C219.777 88 220.047 88.0853 220.274 88.2442C220.501 88.4032 220.674 88.6282 220.769 88.8886L222.727 94.2732L228.111 96.2312C228.373 96.3244 228.599 96.4965 228.758 96.7239C228.917 96.9512 229.002 97.2225 229 97.5H229Z" fill="white"/>
<defs>
<linearGradient id="paint0_linear" x1="962" y1="0" x2="962" y2="1080" gradientUnits="userSpaceOnUse">
<stop stop-color="#007CC2"/>
<stop offset="0.333333" stop-color="#6D71DC" stop-opacity="0.76"/>
<stop offset="1" stop-color="white" stop-opacity="0"/>
</linearGradient>
</defs>
</svg>
